# xmcd
#
# Track frame offsets: 
#        150
#        19417
#        37472
#        54543
#        73238
#        88612
#        104195
#        125932
#        143667
#        158171
#
# Disc length: 2476 seconds
#
# Revision: 0
# Processed by: cddbd v1.5.2PL0 Copyright (c) Steve Scherf et al.
# Submitted via: ExactAudioCopyFreeDBPlugin 1.0
#
DISCID=9f09aa0a
DTITLE=Duke Garwood - Heavy Love
DYEAR=1900
DGENRE=Blues
TTITLE0=Some Times
TTITLE1=Heavy Love
TTITLE2=Burning Seas
TTITLE3=Disco Lights
TTITLE4=Sweet Wine
TTITLE5=Snake Man
TTITLE6=Suppertime In Hell
TTITLE7=Honey In My Ear
TTITLE8=Roses
TTITLE9=Hawaiian Death Ballad
EXTD=
EXTT0=
EXTT1=
EXTT2=
EXTT3=
EXTT4=
EXTT5=
EXTT6=
EXTT7=
EXTT8=
EXTT9=
PLAYORDER=
